<?xml version="1.0" encoding="utf-8"?>
<!-- Generator: Adobe Illustrator 15.0.2, SVG Export Plug-In . SVG Version: 6.00 Build 0)  -->
<!DOCTYPE svg PUBLIC "-//W3C//DTD SVG 1.1//EN" "http://www.w3.org/Graphics/SVG/1.1/DTD/svg11.dtd">
<svg version="1.1" id="Ebene_1" xmlns="http://www.w3.org/2000/svg" xmlns:xlink="http://www.w3.org/1999/xlink" x="0px" y="0px"
	 width="200px" height="150px" viewBox="189.354 61.94 299.946 200" enable-background="new 189.354 61.94 299.946 200"
	 xml:space="preserve">
<g>
	<path fill="#66FCF1" d="M480.933,261.94H197.777c-4.6,0-8.361-3.643-8.361-8.101V70.032c0-4.449,3.762-8.091,8.361-8.091h283.155
		c4.602,0,8.368,3.643,8.368,8.091V253.84C489.354,258.298,485.592,261.94,480.933,261.94z"/>
	<line fill="none" stroke="#FFFFFF" stroke-width="2" stroke-miterlimit="10" x1="189.354" y1="79.571" x2="489.354" y2="79.571"/>
</g>
<ellipse fill="#E52528" cx="201.721" cy="70.9" rx="4.123" ry="3.99"/>
<ellipse fill="#F3E600" cx="214.506" cy="70.9" rx="4.122" ry="3.99"/>
<ellipse fill="#66B32E" cx="227.347" cy="70.9" rx="4.123" ry="3.99"/>
<g>
	<g>
		<path fill="#1F2833" d="M202.855,125.596v-1.5l7.886-5.09v1.908l-6.094,3.87v0.06l6.094,3.876v1.908L202.855,125.596z"/>
		<path fill="#1F2833" d="M214.085,126.638c0-3.241,2.212-5.204,4.541-5.204c1.194,0,2.091,0.459,2.925,1.214h0.061l-0.118-1.735
			v-3.702h2.089v14.337h-1.732l-0.179-1.214l0,0c-0.833,0.805-1.971,1.446-3.226,1.446
			C215.818,131.838,214.085,129.933,214.085,126.638z M221.495,128.833v-4.68c-0.836-0.754-1.614-1.043-2.39-1.043
			c-1.612,0-2.929,1.333-2.929,3.529c0,2.253,1.015,3.529,2.75,3.529C219.881,130.165,220.718,129.703,221.495,128.833z"/>
		<path fill="#1F2833" d="M231.829,123.287h-4.541v-1.624h6.63v9.89h-2.089V123.287z M231.172,118.314
			c0-0.868,0.657-1.446,1.551-1.446c0.897,0,1.554,0.578,1.554,1.446c0,0.867-0.657,1.448-1.554,1.448
			C231.829,119.762,231.172,119.181,231.172,118.314z"/>
		<path fill="#1F2833" d="M238.936,121.663h2.09l2.15,5.379c0.36,0.979,0.719,1.962,1.075,2.948h0.061
			c0.36-0.98,0.656-1.964,1.076-2.948l2.149-5.379h1.973l-4.12,9.89h-2.332L238.936,121.663z"/>
		<path fill="#1F2833" d="M264.684,126.638c0-3.297,2.628-5.204,5.737-5.204c1.673,0,2.926,0.633,3.763,1.446l-1.017,1.275
			c-0.837-0.637-1.671-1.043-2.629-1.043c-2.21,0-3.701,1.387-3.701,3.529s1.495,3.529,3.645,3.529c1.194,0,2.21-0.519,3.046-1.155
			l0.896,1.272c-1.134,0.982-2.628,1.507-4.121,1.507C267.073,131.838,264.684,129.933,264.684,126.638z"/>
		<path fill="#1F2833" d="M280.513,128.142v-9.252h-3.525v-1.624h5.614v10.987c0,1.39,0.777,1.91,1.914,1.91
			c0.538,0,1.134-0.114,1.853-0.406l0.477,1.501c-0.958,0.348-1.674,0.579-2.808,0.579
			C281.769,131.838,280.513,130.511,280.513,128.142z"/>
		<path fill="#1F2833" d="M289.714,128.951c0-2.197,2.09-3.297,7.23-3.698c-0.062-1.214-0.774-2.201-2.566-2.201
			c-1.255,0-2.453,0.521-3.469,1.103l-0.777-1.329c1.137-0.692,2.868-1.388,4.598-1.388c2.812,0,4.303,1.561,4.303,4.162v5.957
			h-1.731l-0.181-1.274h-0.061c-1.075,0.81-2.509,1.506-3.882,1.506C291.207,131.838,289.714,130.685,289.714,128.951z
			 M296.944,128.89v-2.314c-4.005,0.288-5.198,1.042-5.198,2.254c0,0.981,0.895,1.39,2.028,1.39
			C294.85,130.225,295.923,129.703,296.944,128.89z"/>
		<path fill="#1F2833" d="M302.081,130.278l0.955-1.327c1.192,0.808,2.57,1.274,4.363,1.274c1.549,0,2.328-0.58,2.328-1.332
			c0-0.691-0.419-1.153-2.985-1.672c-2.688-0.522-3.943-1.45-3.943-2.95c0-1.676,1.557-2.892,4.361-2.892
			c1.615,0,3.166,0.639,4.185,1.274l-0.96,1.269c-0.954-0.632-2.147-1.037-3.402-1.037c-1.497,0-2.091,0.579-2.091,1.271
			c0,0.752,0.836,1.097,2.809,1.501c3.347,0.692,4.183,1.562,4.183,3.066c0,1.676-1.671,3.003-4.659,3.003
			C305.128,131.838,303.336,131.146,302.081,130.278z"/>
		<path fill="#1F2833" d="M314.626,130.278l0.957-1.327c1.192,0.808,2.568,1.274,4.36,1.274c1.552,0,2.33-0.58,2.33-1.332
			c0-0.691-0.421-1.153-2.986-1.672c-2.689-0.522-3.943-1.45-3.943-2.95c0-1.676,1.556-2.892,4.363-2.892
			c1.611,0,3.164,0.639,4.183,1.274l-0.958,1.269c-0.955-0.632-2.149-1.037-3.405-1.037c-1.494,0-2.09,0.579-2.09,1.271
			c0,0.752,0.836,1.097,2.809,1.501c3.346,0.692,4.182,1.562,4.182,3.066c0,1.676-1.675,3.003-4.659,3.003
			C317.673,131.838,315.879,131.146,314.626,130.278z"/>
		<path fill="#1F2833" d="M327.468,121.952h9.14v1.449h-9.14V121.952z M327.468,126.409h9.14v1.447h-9.14V126.409z"/>
		<path fill="#1F2833" d="M340.072,122.185c0-2.081,1.132-3.756,3.169-4.739l0.595,1.156c-1.437,0.751-2.214,1.848-2.214,3.41
			l0.304,1.675l-1.193-1.446c0.357-0.349,0.894-0.636,1.373-0.636c0.895,0,1.555,0.636,1.555,1.562c0,0.981-0.66,1.674-1.674,1.674
			C340.907,124.842,340.072,123.862,340.072,122.185z M345.089,122.185c0-2.081,1.134-3.756,3.171-4.739l0.594,1.156
			c-1.431,0.751-2.208,1.848-2.208,3.41l0.301,1.675l-1.194-1.446c0.355-0.349,0.894-0.636,1.37-0.636
			c0.896,0,1.558,0.636,1.558,1.562c0,0.981-0.662,1.674-1.679,1.674C345.865,124.842,345.089,123.862,345.089,122.185z"/>
		<path fill="#1F2833" d="M352.494,126.638c0-3.297,2.633-5.204,5.74-5.204c1.675,0,2.926,0.633,3.759,1.446l-1.012,1.275
			c-0.834-0.637-1.676-1.043-2.627-1.043c-2.207,0-3.704,1.387-3.704,3.529s1.497,3.529,3.646,3.529
			c1.198,0,2.213-0.519,3.045-1.155l0.896,1.272c-1.135,0.982-2.626,1.507-4.115,1.507
			C354.891,131.838,352.494,129.933,352.494,126.638z"/>
		<path fill="#1F2833" d="M364.623,126.638c0-3.297,2.39-5.204,5.079-5.204c2.688,0,5.075,1.906,5.075,5.204
			c0,3.295-2.387,5.143-5.075,5.143C367.013,131.781,364.623,129.933,364.623,126.638z M372.629,126.638
			c0-2.143-1.133-3.529-2.927-3.529c-1.792,0-2.926,1.386-2.926,3.529c0,2.141,1.134,3.527,2.926,3.527
			C371.496,130.165,372.629,128.779,372.629,126.638z"/>
		<path fill="#1F2833" d="M377.168,126.638c0-3.241,2.211-5.204,4.541-5.204c1.196,0,2.094,0.459,2.927,1.214h0.063l-0.117-1.735
			v-3.702h2.09v14.337h-1.731l-0.183-1.214l0,0c-0.83,0.805-1.968,1.446-3.225,1.446C378.9,131.838,377.168,129.933,377.168,126.638
			z M384.578,128.833v-4.68c-0.84-0.754-1.616-1.043-2.393-1.043c-1.612,0-2.864,1.333-2.864,3.529c0,2.253,1.014,3.529,2.745,3.529
			C382.962,130.165,383.803,129.703,384.578,128.833z"/>
		<path fill="#1F2833" d="M389.891,126.638c0-3.241,2.511-5.146,5.258-5.146c2.99,0,4.721,1.908,4.721,4.683
			c0,0.407-0.06,0.809-0.12,1.095h-8.422v-1.501h7.105l-0.476,0.521c0-2.141-1.079-3.241-2.809-3.241
			c-1.792,0-3.227,1.275-3.227,3.589c0,2.429,1.556,3.641,3.766,3.641c1.134,0,2.09-0.346,2.984-0.868l0.72,1.274
			c-1.075,0.695-2.387,1.154-4.005,1.154C392.343,131.838,389.891,129.933,389.891,126.638z"/>
		<path fill="#1F2833" d="M402.798,122.185c0-2.081,1.13-3.756,3.166-4.739l0.594,1.156c-1.433,0.751-2.21,1.848-2.21,3.41
			l0.301,1.675l-1.198-1.446c0.364-0.349,0.897-0.636,1.378-0.636c0.899,0,1.556,0.636,1.556,1.562c0,0.981-0.656,1.674-1.674,1.674
			C403.633,124.842,402.798,123.862,402.798,122.185z M407.814,122.185c0-2.081,1.134-3.756,3.168-4.739l0.595,1.156
			c-1.429,0.751-2.207,1.848-2.207,3.41l0.302,1.675l-1.198-1.446c0.357-0.349,0.896-0.636,1.371-0.636
			c0.897,0,1.559,0.636,1.559,1.562c0,0.981-0.661,1.674-1.678,1.674C408.591,124.842,407.814,123.862,407.814,122.185z"/>
		<path fill="#1F2833" d="M415.821,128.779l6.092-3.878v-0.059l-6.092-3.868v-1.91l7.884,5.09v1.5l-7.884,5.03V128.779z"/>
		<path fill="#1F2833" d="M224.362,149.881v-1.503l7.887-5.09v1.908l-6.094,3.873v0.059l6.094,3.876v1.906L224.362,149.881z"/>
		<path fill="#1F2833" d="M236.248,141.5h2.088v3.812l-0.12,2.198h0.06c0.955-0.984,2.15-1.793,3.706-1.793
			c2.391,0,3.463,1.447,3.463,3.988v6.128h-2.089v-5.895c0-1.735-0.598-2.543-2.091-2.543c-1.13,0-1.849,0.52-2.922,1.561v6.826
			h-2.09V141.5H236.248z"/>
		<path fill="#1F2833" d="M248.853,154.22h3.763v-8.962h-2.986v-1.274c1.614-0.234,2.629-0.521,3.527-0.987h1.549v11.22h3.348v1.675
			h-9.2L248.853,154.22L248.853,154.22z"/>
		<path fill="#1F2833" d="M261.696,153.061l6.092-3.873v-0.062l-6.092-3.871v-1.91l7.885,5.092v1.501l-7.885,5.029V153.061z"/>
		<path fill="#1F2833" d="M273.584,142.598h2.09v5.432h5.198v-5.432h2.089v13.237h-2.089v-6.067h-5.198v6.067h-2.09V142.598z"/>
		<path fill="#1F2833" d="M285.95,150.92c0-3.239,2.509-5.143,5.257-5.143c2.986,0,4.716,1.905,4.716,4.684
			c0,0.404-0.06,0.807-0.116,1.094h-8.424v-1.502h7.109l-0.477,0.521c0-2.139-1.076-3.238-2.808-3.238
			c-1.791,0-3.225,1.271-3.225,3.584c0,2.432,1.555,3.644,3.764,3.644c1.135,0,2.088-0.344,2.984-0.866l0.718,1.272
			c-1.074,0.693-2.39,1.157-4.004,1.157C288.399,156.127,285.95,154.22,285.95,150.92z"/>
		<path fill="#1F2833" d="M302.02,152.428v-9.253h-3.524v-1.621h5.612v10.986c0,1.391,0.777,1.908,1.914,1.908
			c0.538,0,1.133-0.116,1.853-0.407l0.477,1.504c-0.957,0.35-1.675,0.583-2.807,0.583C303.274,156.127,302.02,154.8,302.02,152.428z
			"/>
		<path fill="#1F2833" d="M314.563,152.428v-9.253h-3.523v-1.621h5.612v10.986c0,1.391,0.776,1.908,1.913,1.908
			c0.54,0,1.134-0.116,1.853-0.407l0.479,1.504c-0.959,0.35-1.678,0.583-2.81,0.583C315.82,156.127,314.563,154.8,314.563,152.428z"
			/>
		<path fill="#1F2833" d="M323.405,150.92c0-3.294,2.392-5.202,5.078-5.202c2.688,0,5.08,1.907,5.08,5.202
			c0,3.3-2.393,5.147-5.08,5.147C325.797,156.127,323.405,154.22,323.405,150.92z M331.411,150.92c0-2.14-1.134-3.527-2.928-3.527
			c-1.792,0-2.927,1.387-2.927,3.527c0,2.142,1.135,3.528,2.927,3.528C330.277,154.447,331.411,153.061,331.411,150.92z"/>
		<path fill="#1F2833" d="M347.484,142.598h2.268l0.832,7.98c0.12,1.1,0.183,1.85,0.243,3.122h0.059
			c0.237-1.272,0.421-2.02,0.659-3.122l1.257-4.625h1.731l1.189,4.625c0.301,1.1,0.419,1.85,0.661,3.122h0.061
			c0.063-1.272,0.119-2.02,0.182-3.122l0.833-8.037h2.155l-1.909,13.293h-2.451l-1.204-5.028c-0.176-0.808-0.355-1.614-0.473-2.427
			h-0.062c-0.121,0.81-0.241,1.616-0.479,2.427l-1.194,5.028h-2.39L347.484,142.598z"/>
		<path fill="#1F2833" d="M361.039,150.92c0-3.294,2.392-5.202,5.08-5.202c2.688,0,5.076,1.907,5.076,5.202
			c0,3.3-2.389,5.147-5.076,5.147C363.431,156.065,361.039,154.22,361.039,150.92z M369.044,150.92c0-2.14-1.134-3.527-2.925-3.527
			c-1.794,0-2.929,1.387-2.929,3.527c0,2.142,1.135,3.528,2.929,3.528C367.91,154.447,369.044,153.061,369.044,150.92z"/>
		<path fill="#1F2833" d="M375.262,145.95h1.729l0.179,2.315h0.06c1.082-1.616,2.63-2.543,4.481-2.543
			c0.779,0,1.377,0.114,2.03,0.406l-0.476,1.735c-0.719-0.233-1.077-0.288-1.856-0.288c-1.491,0-2.861,0.692-3.996,2.713v5.611
			h-2.094v-9.949L375.262,145.95L375.262,145.95z"/>
		<path fill="#1F2833" d="M389.835,152.428v-9.253h-3.527v-1.621h5.614v10.986c0,1.391,0.778,1.908,1.916,1.908
			c0.535,0,1.129-0.116,1.85-0.407l0.476,1.504c-0.949,0.35-1.673,0.583-2.808,0.583C391.09,156.127,389.835,154.8,389.835,152.428z
			"/>
		<path fill="#1F2833" d="M398.672,150.92c0-3.239,2.211-5.202,4.542-5.202c1.196,0,2.094,0.459,2.926,1.213h0.063l-0.113-1.735
			v-3.699h2.089v14.334h-1.731l-0.185-1.214l0,0c-0.828,0.808-1.966,1.449-3.225,1.449
			C400.406,156.127,398.672,154.22,398.672,150.92z M406.085,153.12v-4.682c-0.841-0.756-1.618-1.042-2.391-1.042
			c-1.615,0-2.866,1.331-2.866,3.526c0,2.258,1.014,3.529,2.743,3.529C404.467,154.447,405.308,153.988,406.085,153.12z"/>
		<path fill="#1F2833" d="M412.532,149.881v-1.503l7.89-5.09v1.908l-6.1,3.873v0.059l6.1,3.876v1.906L412.532,149.881z"/>
		<path fill="#1F2833" d="M431.348,141.5h1.793l-6.868,17.632h-1.79L431.348,141.5z"/>
		<path fill="#1F2833" d="M436.963,141.5h2.092v3.812l-0.118,2.197h0.06c0.955-0.984,2.153-1.793,3.709-1.793
			c2.386,0,3.461,1.447,3.461,3.988v6.128h-2.092v-5.895c0-1.735-0.598-2.543-2.093-2.543c-1.135,0-1.848,0.52-2.926,1.56v6.825
			h-2.087V141.5H436.963z"/>
		<path fill="#1F2833" d="M449.571,154.22h3.762v-8.962h-2.985v-1.274c1.608-0.234,2.63-0.521,3.525-0.987h1.55v11.22h3.347v1.675
			h-9.195v-1.671H449.571L449.571,154.22z"/>
		<path fill="#1F2833" d="M462.416,153.061l6.09-3.873v-0.062l-6.09-3.871v-1.91l7.885,5.092v1.501l-7.885,5.029V153.061z"/>
		<path fill="#1F2833" d="M224.362,174.165v-1.502l7.887-5.09v1.91l-6.094,3.875v0.054l6.094,3.878v1.913L224.362,174.165z"/>
		<path fill="#1F2833" d="M236.248,165.781h2.088v3.818l-0.12,2.197h0.06c0.955-0.982,2.15-1.79,3.706-1.79
			c2.391,0,3.463,1.442,3.463,3.98v6.136h-2.089v-5.902c0-1.732-0.598-2.544-2.091-2.544c-1.13,0-1.849,0.521-2.922,1.566v6.822
			h-2.09v-14.284H236.248z"/>
		<path fill="#1F2833" d="M249.811,170.237h1.731l0.178,2.309h0.061c1.077-1.619,2.628-2.541,4.481-2.541
			c0.776,0,1.375,0.115,2.028,0.405l-0.475,1.733c-0.718-0.235-1.076-0.29-1.854-0.29c-1.494,0-2.866,0.692-4.002,2.719v5.605
			h-2.088v-9.939L249.811,170.237L249.811,170.237z"/>
		<path fill="#1F2833" d="M261.696,177.346l6.092-3.871v-0.063l-6.092-3.87v-1.907l7.885,5.089v1.498l-7.885,5.033V177.346z"/>
		<path fill="#1F2833" d="M202.855,198.451v-1.505l7.886-5.087v1.908l-6.094,3.872v0.059l6.094,3.877v1.909L202.855,198.451z"/>
		<path fill="#1F2833" d="M221.673,190.068h1.793l-6.872,17.636h-1.792L221.673,190.068z"/>
		<path fill="#1F2833" d="M226.631,199.495c0-3.241,2.211-5.208,4.541-5.208c1.193,0,2.089,0.466,2.923,1.216h0.062l-0.118-1.735
			v-3.695h2.09v14.34h-1.733l-0.179-1.217l0,0c-0.834,0.805-1.97,1.44-3.225,1.44C228.364,204.698,226.631,202.787,226.631,199.495z
			 M234.04,201.688v-4.683c-0.836-0.751-1.613-1.041-2.389-1.041c-1.614,0-2.931,1.331-2.931,3.531c0,2.248,1.016,3.525,2.748,3.525
			C232.428,203.021,233.261,202.555,234.04,201.688z"/>
		<path fill="#1F2833" d="M244.374,196.141h-4.541v-1.621h6.631v9.89h-2.09V196.141z M243.717,191.164
			c0-0.863,0.657-1.44,1.552-1.44c0.897,0,1.552,0.577,1.552,1.44c0,0.869-0.655,1.445-1.552,1.445
			C244.374,192.609,243.717,192.033,243.717,191.164z"/>
		<path fill="#1F2833" d="M251.481,194.52h2.088l2.153,5.378c0.358,0.978,0.717,1.964,1.072,2.949h0.062
			c0.359-0.979,0.656-1.963,1.076-2.949l2.149-5.378h1.973l-4.123,9.89h-2.332L251.481,194.52z"/>
		<path fill="#1F2833" d="M265.279,201.634l6.095-3.872v-0.063l-6.095-3.871v-1.907l7.887,5.085v1.505l-7.887,5.029V201.634z"/>
	</g>
</g>
</svg>
