<?xml version="1.0" encoding="utf-8"?>
<!-- Generator: Adobe Illustrator 15.0.2, SVG Export Plug-In . SVG Version: 6.00 Build 0)  -->
<!DOCTYPE svg PUBLIC "-//W3C//DTD SVG 1.1//EN" "http://www.w3.org/Graphics/SVG/1.1/DTD/svg11.dtd">
<svg version="1.1" id="Ebene_1" xmlns="http://www.w3.org/2000/svg" xmlns:xlink="http://www.w3.org/1999/xlink" x="0px" y="0px"
	 width="600px" height="300px" viewBox="-100 -100 600 300" enable-background="new -100 -100 600 300" xml:space="preserve">
<g>
	<path fill="#66FCF1" d="M318.382,144.468H55.8c-4.266,0-7.754-3.492-7.754-7.759V-39.396c0-4.263,3.488-7.753,7.754-7.753h262.582
		c4.266,0,7.758,3.49,7.758,7.753v176.105C326.191,140.976,322.702,144.468,318.382,144.468z"/>
	<line fill="none" stroke="#FFFFFF" stroke-width="2" stroke-miterlimit="10" x1="47.989" y1="-30.256" x2="326.191" y2="-30.256"/>
</g>
<circle fill="#E52528" cx="59.457" cy="-38.564" r="3.823"/>
<circle fill="#F3E600" cx="71.312" cy="-38.564" r="3.823"/>
<circle fill="#66B32E" cx="83.221" cy="-38.564" r="3.823"/>
<g>
	<g>
		<path fill="#1F2833" d="M60.509,13.839v-1.439l7.313-4.876v1.828l-5.651,3.709v0.056l5.651,3.714v1.827L60.509,13.839z"/>
		<path fill="#1F2833" d="M70.922,14.836c0-3.105,2.051-4.985,4.211-4.985c1.107,0,1.939,0.44,2.712,1.164h0.057l-0.109-1.663V5.805
			h1.937v13.737h-1.606l-0.166-1.164l0,0c-0.773,0.773-1.827,1.386-2.991,1.386C72.529,19.82,70.922,17.993,70.922,14.836z
			 M77.794,16.941v-4.484c-0.776-0.723-1.497-1-2.217-1c-1.495,0-2.716,1.278-2.716,3.383c0,2.158,0.941,3.38,2.549,3.38
			C76.298,18.217,77.073,17.773,77.794,16.941z"/>
		<path fill="#1F2833" d="M87.377,11.626h-4.211v-1.554h6.149v9.474h-1.938V11.626z M86.768,6.862c0-0.832,0.609-1.386,1.438-1.386
			c0.832,0,1.441,0.554,1.441,1.386c0,0.831-0.609,1.386-1.441,1.386C87.377,8.248,86.768,7.693,86.768,6.862z"/>
		<path fill="#1F2833" d="M93.968,10.072h1.937l1.995,5.153c0.333,0.938,0.666,1.88,0.996,2.824h0.057
			c0.333-0.939,0.608-1.882,0.998-2.824l1.993-5.153h1.829l-3.821,9.474h-2.162L93.968,10.072z"/>
		<path fill="#1F2833" d="M117.845,14.836c0-3.158,2.437-4.985,5.32-4.985c1.551,0,2.714,0.607,3.49,1.385l-0.943,1.222
			c-0.776-0.609-1.55-1-2.438-1c-2.05,0-3.432,1.33-3.432,3.383c0,2.05,1.386,3.38,3.379,3.38c1.108,0,2.05-0.498,2.825-1.107
			l0.831,1.219c-1.051,0.941-2.437,1.443-3.822,1.443C120.06,19.82,117.845,17.993,117.845,14.836z"/>
		<path fill="#1F2833" d="M132.524,16.278V7.414h-3.269V5.86h5.205v10.526c0,1.331,0.721,1.83,1.775,1.83
			c0.499,0,1.052-0.111,1.718-0.391l0.442,1.439c-0.888,0.333-1.552,0.555-2.603,0.555C133.688,19.82,132.524,18.548,132.524,16.278
			z"/>
		<path fill="#1F2833" d="M141.056,17.053c0-2.104,1.938-3.159,6.705-3.543c-0.057-1.163-0.718-2.108-2.379-2.108
			c-1.164,0-2.275,0.499-3.217,1.056l-0.721-1.274c1.054-0.663,2.659-1.329,4.264-1.329c2.607,0,3.99,1.495,3.99,3.988v5.707h-1.605
			l-0.168-1.221h-0.056c-0.997,0.776-2.327,1.443-3.6,1.443C142.441,19.82,141.056,18.714,141.056,17.053z M147.761,16.996v-2.218
			c-3.714,0.276-4.82,0.999-4.82,2.16c0,0.94,0.83,1.331,1.881,1.331C145.819,18.273,146.814,17.773,147.761,16.996z"/>
		<path fill="#1F2833" d="M152.524,18.325l0.886-1.272c1.107,0.773,2.384,1.221,4.046,1.221c1.438,0,2.159-0.556,2.159-1.275
			c0-0.663-0.388-1.106-2.768-1.604c-2.493-0.499-3.657-1.387-3.657-2.826c0-1.605,1.443-2.77,4.046-2.77
			c1.495,0,2.935,0.611,3.88,1.221l-0.89,1.216c-0.886-0.606-1.993-0.995-3.156-0.995c-1.387,0-1.938,0.555-1.938,1.219
			c0,0.721,0.774,1.051,2.604,1.438c3.104,0.665,3.878,1.497,3.878,2.939c0,1.605-1.551,2.878-4.32,2.878
			C155.35,19.82,153.688,19.156,152.524,18.325z"/>
		<path fill="#1F2833" d="M164.157,18.325l0.888-1.272c1.106,0.773,2.382,1.221,4.044,1.221c1.439,0,2.16-0.556,2.16-1.275
			c0-0.663-0.389-1.106-2.77-1.604c-2.491-0.499-3.655-1.387-3.655-2.826c0-1.605,1.442-2.77,4.046-2.77
			c1.495,0,2.934,0.611,3.879,1.221l-0.888,1.216c-0.888-0.606-1.995-0.995-3.158-0.995c-1.386,0-1.938,0.555-1.938,1.219
			c0,0.721,0.775,1.051,2.603,1.438c3.104,0.665,3.879,1.497,3.879,2.939c0,1.605-1.552,2.878-4.32,2.878
			C166.983,19.82,165.32,19.156,164.157,18.325z"/>
		<path fill="#1F2833" d="M176.067,10.348h8.475v1.387h-8.475V10.348z M176.067,14.617h8.475v1.386h-8.475V14.617z"/>
		<path fill="#1F2833" d="M187.756,10.571c0-1.993,1.049-3.6,2.938-4.541l0.552,1.107c-1.332,0.72-2.053,1.771-2.053,3.268
			l0.28,1.604l-1.106-1.386c0.332-0.333,0.829-0.609,1.275-0.609c0.83,0,1.44,0.609,1.44,1.497c0,0.94-0.61,1.604-1.552,1.604
			C188.53,13.116,187.756,12.178,187.756,10.571z M192.407,10.571c0-1.993,1.053-3.6,2.942-4.541l0.55,1.107
			c-1.328,0.72-2.048,1.771-2.048,3.268l0.279,1.604l-1.108-1.386c0.33-0.333,0.829-0.609,1.271-0.609
			c0.83,0,1.444,0.609,1.444,1.497c0,0.94-0.614,1.604-1.556,1.604C193.128,13.116,192.407,12.178,192.407,10.571z"/>
		<path fill="#1F2833" d="M199.275,14.836c0-3.158,2.441-4.985,5.323-4.985c1.553,0,2.714,0.607,3.486,1.385l-0.938,1.222
			c-0.774-0.609-1.554-1-2.437-1c-2.046,0-3.435,1.33-3.435,3.383c0,2.05,1.389,3.38,3.382,3.38c1.111,0,2.052-0.498,2.824-1.107
			l0.831,1.219c-1.052,0.941-2.435,1.443-3.816,1.443C201.497,19.82,199.275,17.993,199.275,14.836z"/>
		<path fill="#1F2833" d="M210.523,14.836c0-3.158,2.216-4.985,4.709-4.985s4.706,1.827,4.706,4.985
			c0,3.157-2.213,4.928-4.706,4.928S210.523,17.993,210.523,14.836z M217.946,14.836c0-2.052-1.051-3.381-2.714-3.381
			c-1.661,0-2.713,1.329-2.713,3.381c0,2.051,1.052,3.381,2.713,3.381C216.896,18.217,217.946,16.887,217.946,14.836z"/>
		<path fill="#1F2833" d="M222.156,14.836c0-3.105,2.049-4.985,4.21-4.985c1.109,0,1.941,0.44,2.714,1.164h0.059l-0.107-1.663V5.805
			h1.938v13.737h-1.607l-0.168-1.164l0,0c-0.77,0.773-1.825,1.386-2.991,1.386C223.763,19.82,222.156,17.993,222.156,14.836z
			 M229.028,16.941v-4.484c-0.779-0.723-1.5-1-2.218-1c-1.496,0-2.657,1.278-2.657,3.383c0,2.158,0.94,3.38,2.545,3.38
			C227.528,18.217,228.308,17.773,229.028,16.941z"/>
		<path fill="#1F2833" d="M233.955,14.836c0-3.105,2.327-4.93,4.876-4.93c2.771,0,4.376,1.828,4.376,4.487
			c0,0.389-0.053,0.775-0.111,1.05h-7.809v-1.438h6.588l-0.44,0.498c0-2.051-1.001-3.105-2.604-3.105
			c-1.662,0-2.992,1.221-2.992,3.438c0,2.327,1.441,3.489,3.491,3.489c1.052,0,1.938-0.332,2.769-0.832l0.665,1.221
			c-0.995,0.666-2.213,1.106-3.712,1.106C236.228,19.82,233.955,17.993,233.955,14.836z"/>
		<path fill="#1F2833" d="M245.923,10.571c0-1.993,1.049-3.6,2.938-4.541l0.55,1.107c-1.329,0.72-2.05,1.771-2.05,3.268l0.279,1.604
			l-1.111-1.386c0.337-0.333,0.832-0.609,1.279-0.609c0.831,0,1.441,0.609,1.441,1.497c0,0.94-0.61,1.604-1.552,1.604
			C246.698,13.116,245.923,12.178,245.923,10.571z M250.575,10.571c0-1.993,1.051-3.6,2.939-4.541l0.552,1.107
			c-1.327,0.72-2.048,1.771-2.048,3.268l0.28,1.604l-1.112-1.386c0.332-0.333,0.832-0.609,1.272-0.609
			c0.832,0,1.445,0.609,1.445,1.497c0,0.94-0.613,1.604-1.554,1.604C251.296,13.116,250.575,12.178,250.575,10.571z"/>
		<path fill="#1F2833" d="M258.001,16.887l5.648-3.714v-0.057l-5.648-3.707V7.58l7.311,4.877v1.437l-7.311,4.82V16.887z"/>
		<path fill="#1F2833" d="M80.452,37.106v-1.44l7.314-4.877v1.829l-5.651,3.709v0.057l5.651,3.713v1.828L80.452,37.106z"/>
		<path fill="#1F2833" d="M91.475,29.076h1.937v3.653L93.3,34.834h0.056c0.886-0.943,1.993-1.718,3.437-1.718
			c2.217,0,3.211,1.387,3.211,3.822v5.873h-1.938v-5.649c0-1.663-0.555-2.437-1.938-2.437c-1.049,0-1.715,0.497-2.71,1.495v6.538
			h-1.939V29.076H91.475z"/>
		<path fill="#1F2833" d="M103.164,41.261h3.49v-8.585h-2.769v-1.221c1.497-0.224,2.438-0.498,3.27-0.945h1.437v10.746h3.105v1.607
			h-8.532V41.261L103.164,41.261z"/>
		<path fill="#1F2833" d="M115.074,40.154l5.65-3.713v-0.058l-5.65-3.708v-1.83l7.312,4.878v1.438l-7.312,4.818V40.154z"/>
		<path fill="#1F2833" d="M126.098,30.128h1.938v5.205h4.82v-5.205h1.938v12.684h-1.938v-5.815h-4.82v5.815h-1.938V30.128z"/>
		<path fill="#1F2833" d="M137.566,38.103c0-3.105,2.326-4.93,4.875-4.93c2.769,0,4.373,1.827,4.373,4.487
			c0,0.388-0.055,0.774-0.108,1.052h-7.812v-1.441h6.592l-0.441,0.499c0-2.049-0.998-3.104-2.604-3.104
			c-1.661,0-2.991,1.219-2.991,3.437c0,2.327,1.442,3.488,3.49,3.488c1.052,0,1.937-0.33,2.768-0.829l0.666,1.219
			c-0.996,0.665-2.217,1.108-3.714,1.108C139.837,43.089,137.566,41.261,137.566,38.103z"/>
		<path fill="#1F2833" d="M152.467,39.545V30.68h-3.268v-1.553h5.205v10.526c0,1.331,0.721,1.829,1.775,1.829
			c0.499,0,1.051-0.113,1.717-0.39l0.443,1.44c-0.888,0.333-1.553,0.556-2.604,0.556C153.631,43.089,152.467,41.816,152.467,39.545z
			"/>
		<path fill="#1F2833" d="M164.1,39.545V30.68h-3.267v-1.553h5.204v10.526c0,1.331,0.721,1.829,1.775,1.829
			c0.499,0,1.051-0.113,1.719-0.39l0.442,1.44c-0.889,0.333-1.554,0.556-2.604,0.556C165.264,43.089,164.1,41.816,164.1,39.545z"/>
		<path fill="#1F2833" d="M172.299,38.103c0-3.159,2.217-4.986,4.71-4.986c2.492,0,4.711,1.827,4.711,4.986
			c0,3.158-2.219,4.93-4.711,4.93C174.516,43.089,172.299,41.261,172.299,38.103z M179.723,38.103c0-2.052-1.051-3.381-2.714-3.381
			c-1.662,0-2.715,1.329-2.715,3.381s1.053,3.38,2.715,3.38C178.672,41.482,179.723,40.154,179.723,38.103z"/>
		<path fill="#1F2833" d="M194.629,30.128h2.102l0.773,7.646c0.11,1.05,0.169,1.771,0.225,2.991h0.055
			c0.22-1.22,0.389-1.939,0.61-2.991l1.165-4.432h1.606l1.104,4.432c0.279,1.05,0.389,1.771,0.613,2.991h0.056
			c0.058-1.22,0.11-1.939,0.169-2.991l0.772-7.701h1.999l-1.771,12.739h-2.272l-1.117-4.82c-0.165-0.773-0.331-1.547-0.44-2.325
			h-0.057c-0.112,0.775-0.224,1.549-0.444,2.325l-1.109,4.82h-2.214L194.629,30.128z"/>
		<path fill="#1F2833" d="M207.199,38.103c0-3.159,2.218-4.986,4.711-4.986c2.492,0,4.706,1.827,4.706,4.986
			c0,3.158-2.214,4.93-4.706,4.93C209.417,43.032,207.199,41.261,207.199,38.103z M214.623,38.103c0-2.052-1.052-3.381-2.713-3.381
			c-1.663,0-2.715,1.329-2.715,3.381s1.052,3.38,2.715,3.38C213.571,41.482,214.623,40.154,214.623,38.103z"/>
		<path fill="#1F2833" d="M220.388,33.339h1.604l0.165,2.218h0.056c1.003-1.549,2.438-2.437,4.154-2.437
			c0.724,0,1.279,0.11,1.883,0.39l-0.441,1.662c-0.666-0.225-0.997-0.276-1.722-0.276c-1.381,0-2.653,0.663-3.705,2.601v5.375
			h-1.941v-9.532H220.388z"/>
		<path fill="#1F2833" d="M233.903,39.545V30.68h-3.271v-1.553h5.207v10.526c0,1.331,0.721,1.829,1.775,1.829
			c0.496,0,1.047-0.113,1.716-0.39l0.441,1.44c-0.882,0.333-1.551,0.556-2.603,0.556C235.065,43.089,233.903,41.816,233.903,39.545z
			"/>
		<path fill="#1F2833" d="M242.099,38.103c0-3.105,2.049-4.986,4.211-4.986c1.109,0,1.941,0.441,2.713,1.163h0.059l-0.107-1.661
			v-3.545h1.938v13.735h-1.606l-0.169-1.163l0,0c-0.77,0.774-1.824,1.387-2.99,1.387C243.706,43.089,242.099,41.261,242.099,38.103z
			 M248.971,40.21v-4.486c-0.778-0.724-1.499-0.998-2.217-0.998c-1.497,0-2.658,1.276-2.658,3.38c0,2.161,0.941,3.381,2.545,3.381
			C247.472,41.482,248.251,41.04,248.971,40.21z"/>
		<path fill="#1F2833" d="M254.95,37.106v-1.44l7.316-4.877v1.829l-5.655,3.709v0.057l5.655,3.713v1.828L254.95,37.106z"/>
		<path fill="#1F2833" d="M272.399,29.076h1.663l-6.369,16.895h-1.661L272.399,29.076z"/>
		<path fill="#1F2833" d="M277.606,29.076h1.941v3.653l-0.11,2.104h0.055c0.886-0.943,1.997-1.718,3.438-1.718
			c2.214,0,3.21,1.387,3.21,3.822v5.873h-1.938v-5.649c0-1.663-0.555-2.437-1.941-2.437c-1.052,0-1.714,0.497-2.713,1.495v6.538
			h-1.935V29.076H277.606z"/>
		<path fill="#1F2833" d="M289.299,41.261h3.488v-8.585h-2.768v-1.221c1.492-0.224,2.438-0.498,3.268-0.945h1.438v10.746h3.103
			v1.607h-8.526v-1.603H289.299z"/>
		<path fill="#1F2833" d="M301.21,40.154l5.648-3.713v-0.058l-5.648-3.708v-1.83l7.311,4.878v1.438l-7.311,4.818V40.154z"/>
		<path fill="#1F2833" d="M80.452,60.373v-1.441l7.314-4.875v1.83l-5.651,3.71v0.056l5.651,3.714v1.83L80.452,60.373z"/>
		<path fill="#1F2833" d="M91.475,52.341h1.937v3.656L93.3,58.1h0.056c0.886-0.94,1.993-1.713,3.437-1.713
			c2.217,0,3.211,1.383,3.211,3.817v5.876h-1.938v-5.653c0-1.661-0.555-2.438-1.938-2.438c-1.049,0-1.715,0.501-2.71,1.5v6.537
			h-1.939V52.341H91.475z"/>
		<path fill="#1F2833" d="M104.052,56.607h1.605l0.165,2.213h0.057c0.998-1.551,2.437-2.434,4.155-2.434
			c0.72,0,1.275,0.11,1.881,0.387l-0.44,1.661c-0.666-0.224-0.998-0.275-1.72-0.275c-1.385,0-2.658,0.661-3.711,2.603v5.37h-1.937
			v-9.524H104.052z"/>
		<path fill="#1F2833" d="M115.074,63.421l5.65-3.712v-0.057l-5.65-3.711v-1.827l7.312,4.875v1.438l-7.312,4.821V63.421z"/>
		<path fill="#1F2833" d="M60.509,83.64v-1.442l7.313-4.875v1.831l-5.651,3.71v0.055l5.651,3.714v1.831L60.509,83.64z"/>
		<path fill="#1F2833" d="M77.959,75.609h1.663L73.25,92.505h-1.662L77.959,75.609z"/>
		<path fill="#1F2833" d="M82.557,84.639c0-3.103,2.05-4.986,4.211-4.986c1.106,0,1.937,0.443,2.711,1.164h0.057l-0.109-1.663
			v-3.541h1.938v13.735h-1.607l-0.166-1.163l0,0c-0.774,0.771-1.827,1.381-2.991,1.381C84.164,89.625,82.557,87.794,82.557,84.639z
			 M89.427,86.743v-4.486c-0.775-0.721-1.496-1-2.216-1c-1.497,0-2.718,1.274-2.718,3.382c0,2.156,0.942,3.377,2.549,3.377
			C87.932,88.016,88.705,87.572,89.427,86.743z"/>
		<path fill="#1F2833" d="M99.01,81.425h-4.211v-1.551h6.149v9.471H99.01V81.425z M98.401,76.66c0-0.83,0.609-1.383,1.439-1.383
			c0.832,0,1.44,0.553,1.44,1.383c0,0.831-0.608,1.383-1.44,1.383C99.01,78.043,98.401,77.491,98.401,76.66z"/>
		<path fill="#1F2833" d="M105.601,79.874h1.937l1.996,5.15c0.332,0.938,0.665,1.881,0.995,2.825h0.057
			c0.333-0.938,0.609-1.88,0.998-2.825l1.993-5.15h1.83l-3.823,9.471h-2.162L105.601,79.874z"/>
		<path fill="#1F2833" d="M118.397,86.688l5.652-3.71v-0.06l-5.652-3.709v-1.827l7.314,4.875v1.438l-7.314,4.819V86.688z"/>
	</g>
</g>
</svg>
