<?xml version="1.0" encoding="utf-8"?>
<!-- Generator: Adobe Illustrator 15.0.2, SVG Export Plug-In . SVG Version: 6.00 Build 0)  -->
<!DOCTYPE svg PUBLIC "-//W3C//DTD SVG 1.1//EN" "http://www.w3.org/Graphics/SVG/1.1/DTD/svg11.dtd">
<svg version="1.1" id="Layer_1" xmlns="http://www.w3.org/2000/svg" xmlns:xlink="http://www.w3.org/1999/xlink" x="0px" y="0px"
	 width="650px" height="500px" viewBox="0 0 650 500" enable-background="new 0 0 650 500" xml:space="preserve">
<filter  width="1.1371" height="1.2091" x="-.068536" y="-.10456" id="f" color-interpolation-filters="sRGB">
	<feGaussianBlur  stdDeviation="13.463792"></feGaussianBlur>
</filter>
<g filter="url(#f)">
	<rect x="89.262" y="110.62" opacity="0.0904" width="471.48" height="309.03"/>
</g>
<rect x="89.262" y="95.484" fill="#66FCF1" width="471.48" height="309.03"/>
<rect x="89.262" y="95.484" fill="#EDEDED" width="471.48" height="16.293"/>
<circle fill="#62D5E9" cx="97.408" cy="103.63" r="2.812"/>
<circle fill="#FF8D72" cx="114.28" cy="103.63" r="2.812"/>
<circle fill="#58F9A2" cx="105.84" cy="103.63" r="2.812"/>
<g transform="matrix(.78849 0 0 .78849 -57.868 14.298)">
	<path fill="#45A29E" d="M438.93,275.9c0,48.034-36.897,88.01-84.776,91.853s-90.68-29.737-98.341-77.156l90.969-14.697H438.93z"/>
	<path fill="#0B0C10" d="M264.69,225.71c14.014-24.338,38.364-40.957,66.136-45.138l13.719,91.121L264.69,225.71z"/>
	<path fill="#C5C6C7" d="M337.94,181.3c25.423-2.891,50.902,4.918,70.338,21.558c19.437,16.64,31.079,40.611,32.142,66.175
		l-92.069,3.826L337.94,181.3z"/>
	<path fill="#C5C6C7" fill-opacity="0.0902" d="M244.21,287.21c-0.619-5.126-0.805-10.295-0.558-15.453l92.043,4.411L244.21,287.21z
		"/>
	<path fill="#0B0C10" d="M247.94,265.78c1.05-12.35,4.58-24.361,10.38-35.315l81.437,43.12L247.94,265.78z"/>
</g>
<g transform="translate(3.8713)">
	<rect x="384.03" y="273.49" fill="#C5C6C7" width="24.769" height="31.011"/>
	<rect x="418.43" y="257.38" fill="#0B0C10" width="24.768" height="47.122"/>
	<rect x="452.83" y="268.93" fill="#C5C6C7" width="24.769" height="35.571"/>
	<rect x="487.23" y="208.29" fill="#0B0C10" width="24.768" height="96.213"/>
</g>
<path fill="none" d=""/>
<path fill="#45A29E" stroke="#62D5E9" d="M136.954,361.781c0.461,1.591-0.455,3.256-2.046,3.717
	c-1.59,0.461-3.255-0.455-3.717-2.046c-0.461-1.591,0.456-3.256,2.046-3.717C134.828,359.274,136.493,360.19,136.954,361.781z"/>
<path fill="#45A29E" stroke="#62D5E9" d="M191.602,346.72c0.039,1.655-1.273,3.03-2.929,3.069c-1.655,0.038-3.03-1.274-3.069-2.93
	c-0.039-1.655,1.273-3.03,2.929-3.069C190.188,343.752,191.563,345.063,191.602,346.72z"/>
<path fill="#45A29E" stroke="#62D5E9" d="M246.076,360.464c-0.332,1.622-1.918,2.669-3.541,2.337
	c-1.623-0.332-2.669-1.918-2.337-3.541c0.332-1.622,1.918-2.669,3.541-2.337C245.361,357.255,246.408,358.842,246.076,360.464z"/>
<path fill="#45A29E" stroke="#62D5E9" d="M300.644,368.759c0.217,1.642-0.939,3.149-2.581,3.366
	c-1.642,0.218-3.15-0.939-3.367-2.581s0.939-3.15,2.581-3.367C298.918,365.96,300.427,367.116,300.644,368.759z"/>
<path fill="#45A29E" stroke="#62D5E9" d="M355.184,343.732c0.186,1.646-1,3.132-2.646,3.316c-1.646,0.186-3.132-1-3.317-2.646
	c-0.185-1.646,1-3.131,2.646-3.316C353.513,340.901,354.998,342.087,355.184,343.732z"/>
<path fill="#45A29E" stroke="#62D5E9" d="M409.718,355.83c-0.179,1.646-1.661,2.837-3.308,2.657s-2.836-1.661-2.657-3.308
	c0.179-1.646,1.661-2.836,3.308-2.657C408.707,352.702,409.896,354.184,409.718,355.83z"/>
<path fill="#45A29E" stroke="#62D5E9" d="M464.246,355.698c0.202,1.644-0.969,3.142-2.612,3.344
	c-1.644,0.201-3.142-0.969-3.343-2.612c-0.202-1.644,0.968-3.142,2.611-3.344C462.547,352.885,464.044,354.055,464.246,355.698z"/>
<path fill="#45A29E" stroke="#62D5E9" d="M518.706,341.14c0.417,1.603-0.546,3.242-2.148,3.658
	c-1.603,0.417-3.241-0.546-3.658-2.148s0.546-3.241,2.148-3.658S518.29,339.537,518.706,341.14z"/>
<path marker-start="url(#h)" marker-mid="url(#e)" marker-end="url(#g)" fill="#62D5E9" stroke="#62D5E9" d="M515.861,341.88"/>
</svg>
