<?xml version="1.0" encoding="utf-8"?>
<!-- Generator: Adobe Illustrator 15.0.2, SVG Export Plug-In . SVG Version: 6.00 Build 0)  -->
<!DOCTYPE svg PUBLIC "-//W3C//DTD SVG 1.1//EN" "http://www.w3.org/Graphics/SVG/1.1/DTD/svg11.dtd">
<svg version="1.1" id="svg2" xmlns="http://www.w3.org/2000/svg" xmlns:xlink="http://www.w3.org/1999/xlink" x="0px" y="0px"
	 width="750px" height="500px" viewBox="0 0 750 500" enable-background="new 0 0 750 500" xml:space="preserve">
<filter  width="1.0634488" height="1.1971374" x="-0.031724423" y="-0.098568678" id="filter4402-3-2" style="color-interpolation-filters:sRGB">
	<feGaussianBlur  stdDeviation="7.209093" id="feGaussianBlur4404-6-9"></feGaussianBlur>
</filter>
<filter  width="1.0634488" height="1.1971374" x="-0.031724423" y="-0.098568678" id="filter4402-3" style="color-interpolation-filters:sRGB">
	<feGaussianBlur  stdDeviation="7.209093" id="feGaussianBlur4404-6"></feGaussianBlur>
</filter>
<filter  width="1.0634488" height="1.1971374" x="-0.031724423" y="-0.098568678" id="filter4402-0" style="color-interpolation-filters:sRGB">
	<feGaussianBlur  stdDeviation="7.209093" id="feGaussianBlur4404-2"></feGaussianBlur>
</filter>
<filter  width="1.0634488" height="1.1971374" x="-0.031724423" y="-0.098568678" id="filter4402" style="color-interpolation-filters:sRGB">
	<feGaussianBlur  stdDeviation="7.209093" id="feGaussianBlur4404"></feGaussianBlur>
</filter>
<g id="layer1" transform="translate(0,-552.36209)">
	<rect id="rect4133" y="552.362" fill="#66FCF1" width="750" height="500"/>
</g>
<g id="layer2">
	<g id="g4622" transform="translate(-15.349537,-552.36209)">
		<g id="rect4135-9" filter="url(#filter4402)">
			<path opacity="0.1168" d="M308.969,598.572h338.492c4.214,0,7.63,3.312,7.63,7.397v95.599c0,4.085-3.416,7.397-7.63,7.397
				H308.969c-4.213,0-7.629-3.312-7.629-7.397v-95.599C301.339,601.884,304.755,598.572,308.969,598.572z"/>
		</g>
		<path id="rect4135" fill="#C5C6C7" d="M308.737,589.827h338.957c4.085,0,7.397,3.312,7.397,7.397v95.599
			c0,4.085-3.312,7.397-7.397,7.397H308.737c-4.085,0-7.397-3.312-7.397-7.397v-95.599
			C301.339,593.139,304.651,589.827,308.737,589.827z"/>
		<path id="path4140-3" fill="#66FCF1" d="M322.096,609.952v10.062h287.99v-10.062H322.096L322.096,609.952z"/>
		<path id="path4140-3-6-7" fill="#FFFFFF" d="M322.096,630.077v10.062h115.121v-10.062H322.096z"/>
		<path id="path4140-3-6-7-5" fill="#66FCF1" d="M447.595,630.077v10.062h115.12v-10.062H447.595z"/>
		<path id="path4140-3-5" fill="#66FCF1" d="M322.096,650.202v10.063h312.238v-10.063H322.096z"/>
		<path id="path4140-3-6-7-1" fill="#C6EECA" d="M322.096,670.328v10.062h59.345v-10.062H322.096z"/>
		<path id="path4140-3-6-7-1-2" fill="#C6EECA" d="M391.819,670.328v10.062h77.004v-10.062H391.819z"/>
		<path id="path4140-3-6-7-1-2-0" fill="#C6EECA" d="M479.201,670.328v10.062h43.841v-10.062H479.201L479.201,670.328z"/>
		<g id="rect4135-9-0" filter="url(#filter4402-3)">
			<path opacity="0.1168" d="M308.969,749.593h338.492c4.214,0,7.63,3.312,7.63,7.397v95.599c0,4.085-3.416,7.397-7.63,7.397
				H308.969c-4.213,0-7.629-3.312-7.629-7.397V756.99C301.339,752.905,304.755,749.593,308.969,749.593z"/>
		</g>
		<path id="rect4135-6" fill="#C5C6C7" d="M308.737,740.847h338.957c4.085,0,7.397,3.312,7.397,7.397v95.599
			c0,4.085-3.312,7.397-7.397,7.397H308.737c-4.085,0-7.397-3.312-7.397-7.397v-95.599
			C301.339,744.159,304.651,740.847,308.737,740.847z"/>
		<path id="path4140-3-2" fill="#66FCF1" d="M322.096,760.972v10.062h263.105v-10.062H322.096z"/>
		<path id="path4140-3-6-7-6" fill="#FFFFFF" d="M322.096,781.097v10.063h159.021v-10.063H322.096L322.096,781.097z"/>
		<path id="path4140-3-6-7-5-1" fill="#66FCF1" d="M491.18,781.097v10.063h56.899v-10.063H491.18L491.18,781.097z"/>
		<path id="path4140-3-5-8" fill="#66FCF1" d="M322.096,801.223v10.063h262.938v-10.063H322.096L322.096,801.223z"/>
		<path id="path4140-3-6-7-1-7" fill="#C6EECA" d="M322.096,821.348v10.062h69.408v-10.062H322.096L322.096,821.348z"/>
		<path id="path4140-3-6-7-1-2-9" fill="#FFFFFF" d="M401.566,821.348v10.062h71.604v-10.062H401.566z"/>
		<circle id="path4487" fill="#54CFBE" cx="338.959" cy="801.223" r="91.241"/>
		<g id="rect4135-9-0-3" filter="url(#filter4402-3-2)">
			<path opacity="0.1168" d="M280.236,735.555h134.748c5.339,0,9.638,4.251,9.638,9.532v123.183c0,5.281-4.299,9.532-9.638,9.532
				H280.236c-5.339,0-9.638-4.251-9.638-9.532V745.087C270.598,739.806,274.896,735.555,280.236,735.555z"/>
		</g>
		<path id="rect4135-6-1" fill="#C5C6C7" d="M280.131,724.286c-5.281,0-9.533,4.252-9.533,9.533v123.182
			c0,5.28,4.252,9.533,9.533,9.533h133.174l11.662-9.391l18.592-57.77l-25.232-59.098l-18.602-15.99H280.131z"/>
		<g id="rect4135-9-3" filter="url(#filter4402-0)">
			<path opacity="0.1168" d="M308.969,915.306h338.492c4.214,0,7.63,3.312,7.63,7.397v95.599c0,4.086-3.416,7.397-7.63,7.397
				H308.969c-4.213,0-7.629-3.312-7.629-7.397v-95.599C301.339,918.619,304.755,915.306,308.969,915.306z"/>
		</g>
		<path id="rect4135-7" fill="#C5C6C7" d="M308.737,906.561h338.957c4.085,0,7.397,3.312,7.397,7.397v95.599
			c0,4.086-3.312,7.397-7.397,7.397H308.737c-4.085,0-7.397-3.312-7.397-7.397v-95.599
			C301.339,909.874,304.651,906.561,308.737,906.561z"/>
		<path id="path4140-3-59" fill="#66FCF1" d="M322.096,926.686v10.063H481.6v-10.063H322.096L322.096,926.686z"/>
		<path id="path4140-3-6-7-2" fill="#66FCF1" d="M322.096,946.812v10.062h57.684v-10.062H322.096z"/>
		<path id="path4140-3-6-7-5-2" fill="#FFFFFF" d="M389.842,946.812v10.062h75.612v-10.062H389.842z"/>
		<path id="path4140-3-5-89" fill="#66FCF1" d="M322.096,966.937V977h260.445v-10.062H322.096L322.096,966.937z"/>
		<path id="path4140-3-6-7-1-73" fill="#FFFFFF" d="M322.096,987.062v10.062h78.361v-10.062H322.096z"/>
		<path id="path4140-3-6-7-1-2-6" fill="#FFFFFF" d="M410.519,987.062v10.062h77.004v-10.062H410.519z"/>
		<path id="path4140-3-6-7-1-2-0-1" fill="#FFFFFF" d="M497.586,987.062v10.062h23.416v-10.062H497.586z"/>
		<path id="path4140-3-2-9" fill="#8D8EFF" d="M296.817,750.219v12.966h131.817v-12.966H296.817L296.817,750.219z"/>
		<path id="path4140-3-6-7-6-4" fill="#66FCF1" d="M296.817,776.151v12.966h142.44v-12.966H296.817L296.817,776.151z"/>
		<path id="path4140-3-5-8-8" fill="#66FCF1" d="M296.817,802.083v12.967h133.599v-12.967H296.817z"/>
		<path id="path4140-3-6-7-1-7-4" fill="#FFFFFF" d="M296.817,828.015v12.966h87.675v-12.966H296.817L296.817,828.015z"/>
		<path id="path4140-3-6-7-1-2-9-5" fill="#FFFFFF" d="M397.203,828.015v12.966h35.337v-12.966H397.203z"/>
		<path id="path4481" fill="#1F2833" d="M338.959,686.618c-63.105,0-114.605,51.5-114.605,114.605
			c0,25.807,8.617,49.669,23.113,68.865L119.25,998.305c-6.345,6.151-6.502,16.281-0.351,22.627
			c6.151,6.346,16.282,6.503,22.627,0.352c0.119-0.115,0.236-0.232,0.351-0.352l128.219-128.217
			c19.196,14.496,43.058,23.113,68.863,23.113c63.105,0,114.605-51.5,114.605-114.605S402.064,686.618,338.959,686.618z
			 M338.959,718.618c45.812,0,82.605,36.794,82.605,82.605s-36.794,82.605-82.605,82.605c-21.875,0-41.681-8.405-56.42-22.16
			c-1.082-1.55-2.429-2.896-3.98-3.977c-13.782-14.744-22.205-34.568-22.205-56.469
			C256.353,755.412,293.148,718.618,338.959,718.618z"/>
		<path id="path4602" fill="#FFFFFF" fill-opacity="0.2243" d="M338.959,712.8c-48.835,0-88.423,39.588-88.424,88.423
			c0,0,0,0,0,0.001c0,48.835,39.588,88.424,88.423,88.424c0,0,0.001,0,0.001,0c48.835,0,88.424-39.588,88.424-88.423
			c0,0,0,0,0-0.001C427.383,752.388,387.795,712.8,338.959,712.8C338.959,712.8,338.959,712.8,338.959,712.8z M338.959,718.618
			c45.812,0,82.605,36.794,82.605,82.605s-36.794,82.605-82.605,82.605c-21.875,0-41.681-8.405-56.42-22.16
			c-1.082-1.55-2.429-2.896-3.98-3.977c-13.782-14.744-22.205-34.568-22.205-56.469
			C256.353,755.412,293.148,718.618,338.959,718.618z"/>
	</g>
</g>
</svg>
