<?xml version="1.0" encoding="utf-8"?>
<!-- Generator: Adobe Illustrator 15.0.2, SVG Export Plug-In . SVG Version: 6.00 Build 0)  -->
<!DOCTYPE svg PUBLIC "-//W3C//DTD SVG 1.1//EN" "http://www.w3.org/Graphics/SVG/1.1/DTD/svg11.dtd">
<svg version="1.1" id="svg2" xmlns="http://www.w3.org/2000/svg" xmlns:xlink="http://www.w3.org/1999/xlink" x="0px" y="0px"
	 width="300px" height="200px" viewBox="225 153.5 300 200" enable-background="new 225 153.5 300 200" xml:space="preserve">
<filter  height="1.1971374" width="1.0634488" y="-0.098568678" x="-0.031724423" style="color-interpolation-filters:sRGB" id="filter4402-3-2">
	<feGaussianBlur  id="feGaussianBlur4404-6-9" stdDeviation="7.209093"></feGaussianBlur>
</filter>
<filter  height="1.1971374" width="1.0634488" y="-0.098568678" x="-0.031724423" style="color-interpolation-filters:sRGB" id="filter4402-3">
	<feGaussianBlur  id="feGaussianBlur4404-6" stdDeviation="7.209093"></feGaussianBlur>
</filter>
<filter  height="1.1971374" width="1.0634488" y="-0.098568678" x="-0.031724423" style="color-interpolation-filters:sRGB" id="filter4402-0">
	<feGaussianBlur  id="feGaussianBlur4404-2" stdDeviation="7.209093"></feGaussianBlur>
</filter>
<filter  height="1.1971374" width="1.0634488" y="-0.098568678" x="-0.031724423" style="color-interpolation-filters:sRGB" id="filter4402">
	<feGaussianBlur  id="feGaussianBlur4404" stdDeviation="7.209093"></feGaussianBlur>
</filter>
<g id="layer1" transform="translate(0,-552.36209)">
	<rect id="rect4133" x="225" y="704.863" fill="#66FCF1" width="300.002" height="199.999"/>
</g>
<g id="layer2">
	<g id="g4622" transform="translate(-15.349537,-552.36209)">
		<g id="rect4135-9" filter="url(#filter4402)">
			<path opacity="0.1168" enable-background="new    " d="M361.361,723.375h135.397c1.686,0,3.053,1.324,3.053,2.958v38.227
				c0,1.633-1.367,2.958-3.053,2.958H361.361c-1.686,0-3.052-1.325-3.052-2.958v-38.227
				C358.308,724.699,359.675,723.375,361.361,723.375z"/>
		</g>
		<path id="rect4135" fill="#C5C6C7" d="M361.268,719.879h135.583c1.633,0,2.959,1.324,2.959,2.957v38.227
			c0,1.634-1.326,2.958-2.959,2.958H361.268c-1.634,0-2.959-1.324-2.959-2.958v-38.227
			C358.308,721.203,359.634,719.879,361.268,719.879z"/>
		<path id="path4140-3" fill="#66FCF1" d="M366.612,727.926v4.023h115.195v-4.023H366.612L366.612,727.926z"/>
		<path id="path4140-3-6-7" fill="#FFFFFF" d="M366.612,735.972v4.023h46.048v-4.023H366.612z"/>
		<path id="path4140-3-6-7-5" fill="#66FCF1" d="M416.81,735.972v4.023h46.049v-4.023H416.81z"/>
		<path id="path4140-3-5" fill="#66FCF1" d="M366.612,744.02v4.023h124.896v-4.023H366.612z"/>
		<path id="path4140-3-6-7-1" fill="#C6EECA" d="M366.612,752.067v4.023h23.738v-4.023H366.612z"/>
		<path id="path4140-3-6-7-1-2" fill="#C6EECA" d="M394.5,752.067v4.023h30.803v-4.023H394.5z"/>
		<path id="path4140-3-6-7-1-2-0" fill="#C6EECA" d="M429.453,752.067v4.023h17.537v-4.023H429.453L429.453,752.067z"/>
		<g id="rect4135-9-0" filter="url(#filter4402-3)">
			<path opacity="0.1168" enable-background="new    " d="M361.361,783.762h135.397c1.686,0,3.053,1.324,3.053,2.958v38.226
				c0,1.635-1.367,2.959-3.053,2.959H361.361c-1.686,0-3.052-1.324-3.052-2.959V786.72
				C358.308,785.087,359.675,783.762,361.361,783.762z"/>
		</g>
		<path id="rect4135-6" fill="#C5C6C7" d="M361.268,780.265h135.583c1.633,0,2.959,1.324,2.959,2.958v38.227
			c0,1.633-1.326,2.957-2.959,2.957H361.268c-1.634,0-2.959-1.324-2.959-2.957v-38.227
			C358.308,781.59,359.634,780.265,361.268,780.265z"/>
		<path id="path4140-3-2" fill="#66FCF1" d="M366.612,788.312v4.023h105.242v-4.023H366.612z"/>
		<path id="path4140-3-6-7-6" fill="#FFFFFF" d="M366.612,796.359v4.024h63.609v-4.024H366.612L366.612,796.359z"/>
		<path id="path4140-3-6-7-5-1" fill="#66FCF1" d="M434.244,796.359v4.024h22.762v-4.024H434.244L434.244,796.359z"/>
		<path id="path4140-3-5-8" fill="#66FCF1" d="M366.612,804.407v4.025h105.175v-4.025H366.612L366.612,804.407z"/>
		<path id="path4140-3-6-7-1-7" fill="#C6EECA" d="M366.612,812.456v4.023h27.763v-4.023H366.612L366.612,812.456z"/>
		<path id="path4140-3-6-7-1-2-9" fill="#FFFFFF" d="M398.4,812.456v4.023h28.641v-4.023H398.4z"/>
		<ellipse id="path4487" fill="#54CFBE" cx="373.357" cy="804.407" rx="36.497" ry="36.484"/>
		<g id="rect4135-9-0-3" filter="url(#filter4402-3-2)">
			<path opacity="0.1168" enable-background="new    " d="M349.868,778.149h53.9c2.135,0,3.855,1.7,3.855,3.812v49.257
				c0,2.111-1.721,3.811-3.855,3.811h-53.9c-2.136,0-3.855-1.699-3.855-3.811v-49.257
				C346.012,779.849,347.732,778.149,349.868,778.149z"/>
		</g>
		<path id="rect4135-6-1" fill="#C5C6C7" d="M349.826,773.643c-2.113,0-3.813,1.7-3.813,3.812v49.257c0,2.111,1.7,3.811,3.813,3.811
			h53.27l4.664-3.754l7.438-23.1l-10.094-23.632l-7.441-6.395L349.826,773.643L349.826,773.643z"/>
		<g id="rect4135-9-3" filter="url(#filter4402-0)">
			<path opacity="0.1168" enable-background="new    " d="M361.361,850.026h135.397c1.686,0,3.053,1.322,3.053,2.957v38.227
				c0,1.633-1.367,2.957-3.053,2.957H361.361c-1.686,0-3.052-1.324-3.052-2.957v-38.227
				C358.308,851.35,359.675,850.026,361.361,850.026z"/>
		</g>
		<path id="rect4135-7" fill="#C5C6C7" d="M361.268,846.528h135.583c1.633,0,2.959,1.324,2.959,2.957v38.227
			c0,1.635-1.326,2.959-2.959,2.959H361.268c-1.634,0-2.959-1.324-2.959-2.959v-38.227
			C358.308,847.852,359.634,846.528,361.268,846.528z"/>
		<path id="path4140-3-59" fill="#66FCF1" d="M366.612,854.575v4.023h63.8v-4.023H366.612L366.612,854.575z"/>
		<path id="path4140-3-6-7-2" fill="#66FCF1" d="M366.612,862.624v4.023h23.073v-4.023H366.612z"/>
		<path id="path4140-3-6-7-5-2" fill="#FFFFFF" d="M393.711,862.624v4.023h30.244v-4.023H393.711z"/>
		<path id="path4140-3-5-89" fill="#66FCF1" d="M366.612,870.671v4.023h104.177v-4.023H366.612L366.612,870.671z"/>
		<path id="path4140-3-6-7-1-73" fill="#FFFFFF" d="M366.612,878.718v4.023h31.343v-4.023H366.612z"/>
		<path id="path4140-3-6-7-1-2-6" fill="#FFFFFF" d="M401.98,878.718v4.023h30.803v-4.023H401.98z"/>
		<path id="path4140-3-6-7-1-2-0-1" fill="#FFFFFF" d="M436.807,878.718v4.023h9.367v-4.023H436.807z"/>
		<path id="path4140-3-2-9" fill="#8D8EFF" d="M356.5,784.012v5.185h52.726v-5.185H356.5L356.5,784.012z"/>
		<path id="path4140-3-6-7-6-4" fill="#66FCF1" d="M356.5,794.382v5.184h56.976v-5.184H356.5L356.5,794.382z"/>
		<path id="path4140-3-5-8-8" fill="#66FCF1" d="M356.5,804.751v5.186h53.439v-5.186H356.5z"/>
		<path id="path4140-3-6-7-1-7-4" fill="#FFFFFF" d="M356.5,815.12v5.186h35.07v-5.186H356.5L356.5,815.12z"/>
		<path id="path4140-3-6-7-1-2-9-5" fill="#FFFFFF" d="M396.654,815.12v5.186h14.135v-5.186H396.654z"/>
		<path id="path4481" fill="#1F2833" d="M373.357,758.581c-25.242,0-45.843,20.593-45.843,45.826c0,10.32,3.448,19.861,9.246,27.537
			l-51.287,51.27c-2.538,2.459-2.601,6.51-0.141,9.047c2.461,2.537,6.514,2.602,9.051,0.141c0.048-0.045,0.095-0.092,0.142-0.141
			l51.287-51.27c7.679,5.797,17.223,9.242,27.545,9.242c25.243,0,45.842-20.592,45.842-45.826
			C419.199,779.174,398.6,758.581,373.357,758.581z M373.357,771.377c18.325,0,33.042,14.713,33.042,33.03
			c0,18.318-14.717,33.031-33.042,33.031c-8.75,0-16.672-3.361-22.567-8.861c-0.434-0.619-0.973-1.158-1.593-1.59
			c-5.513-5.896-8.882-13.822-8.882-22.58C340.315,786.09,355.033,771.377,373.357,771.377z"/>
		<path id="path4602" fill="#FFFFFF" fill-opacity="0.2243" d="M373.357,769.051c-19.534,0-35.369,15.829-35.37,35.356
			c0,0,0,0,0,0.002c0,19.527,15.836,35.357,35.37,35.357l0,0c19.534,0,35.37-15.83,35.37-35.357l0,0
			C408.727,784.88,392.891,769.051,373.357,769.051L373.357,769.051z M373.357,771.377c18.325,0,33.042,14.713,33.042,33.03
			c0,18.318-14.717,33.031-33.042,33.031c-8.75,0-16.672-3.361-22.567-8.861c-0.434-0.619-0.973-1.158-1.593-1.59
			c-5.513-5.896-8.882-13.822-8.882-22.58C340.315,786.09,355.033,771.377,373.357,771.377z"/>
	</g>
</g>
</svg>
