<?xml version="1.0" encoding="utf-8"?>
<!-- Generator: Adobe Illustrator 15.0.2, SVG Export Plug-In . SVG Version: 6.00 Build 0)  -->
<!DOCTYPE svg PUBLIC "-//W3C//DTD SVG 1.1//EN" "http://www.w3.org/Graphics/SVG/1.1/DTD/svg11.dtd">
<svg version="1.1" id="Layer_1" xmlns="http://www.w3.org/2000/svg" xmlns:xlink="http://www.w3.org/1999/xlink" x="0px" y="0px"
	 width="300px" height="200px" viewBox="175.002 157.567 300 190.661" enable-background="new 175.002 157.567 300 190.661"
	 xml:space="preserve">
<filter  height="1.2091" width="1.1371" y="-.10456" x="-.068536" id="f" color-interpolation-filters="sRGB">
	<feGaussianBlur  stdDeviation="13.463792"></feGaussianBlur>
</filter>
<g filter="url(#f)">
	<rect x="175.002" y="166.905" opacity="0.0904" enable-background="new    " width="300" height="190.663"/>
</g>
<rect x="175.002" y="157.567" fill="#66FCF1" width="300" height="190.661"/>
<rect x="175.002" y="157.567" fill="#EDEDED" width="300" height="10.052"/>
<ellipse fill="#62D5E9" cx="180.186" cy="162.593" rx="1.789" ry="1.736"/>
<ellipse fill="#FF8D72" cx="190.921" cy="162.593" rx="1.789" ry="1.736"/>
<ellipse fill="#58F9A2" cx="185.55" cy="162.593" rx="1.79" ry="1.736"/>
<g transform="matrix(.78849 0 0 .78849 -57.868 14.298)">
	<path fill="#45A29E" d="M455.895,288.398c0,29.636-23.477,54.297-53.943,56.665c-30.465,2.375-57.7-18.34-62.574-47.6l57.883-9.065
		H455.895z"/>
	<path fill="#0B0C10" d="M345.027,257.432c8.917-15.016,24.411-25.269,42.082-27.851l8.729,56.218L345.027,257.432z"/>
	<path fill="#C5C6C7" d="M391.635,230.032c16.176-1.785,32.389,3.033,44.756,13.299c12.367,10.267,19.775,25.057,20.452,40.83
		l-58.583,2.361L391.635,230.032z"/>
	<path fill="#C5C6C7" fill-opacity="0.0902" d="M331.996,295.374c-0.394-3.161-0.513-6.352-0.355-9.534l58.567,2.721
		L331.996,295.374z"/>
	<path fill="#0B0C10" d="M334.369,282.153c0.668-7.621,2.914-15.031,6.604-21.788l51.818,26.603L334.369,282.153z"/>
</g>
<g transform="translate(3.8713)">
	<rect x="361.153" y="267.393" fill="#C5C6C7" width="15.761" height="19.132"/>
	<rect x="383.042" y="257.454" fill="#0B0C10" width="15.76" height="29.071"/>
	<rect x="404.93" y="264.577" fill="#C5C6C7" width="15.761" height="21.947"/>
	<rect x="426.819" y="227.164" fill="#0B0C10" width="15.76" height="59.361"/>
</g>
<path fill="#0B0C10" enable-background="new    " d="M0,0"/>
<path fill="#45A29E" stroke="#62D5E9" d="M205.348,321.864c0.293,0.982-0.29,2.009-1.302,2.293
	c-1.012,0.286-2.071-0.282-2.365-1.261c-0.293-0.981,0.29-2.01,1.302-2.296C203.996,320.318,205.055,320.884,205.348,321.864z"/>
<path fill="#45A29E" stroke="#62D5E9" d="M240.121,312.57c0.025,1.021-0.81,1.871-1.864,1.896c-1.053,0.024-1.928-0.786-1.953-1.809
	c-0.024-1.021,0.81-1.868,1.864-1.892C239.221,310.741,240.096,311.551,240.121,312.57z"/>
<path fill="#45A29E" stroke="#62D5E9" d="M274.782,321.052c-0.211,1.001-1.221,1.648-2.253,1.442
	c-1.033-0.204-1.698-1.183-1.487-2.186c0.211-1.001,1.22-1.648,2.253-1.442C274.327,319.07,274.993,320.05,274.782,321.052z"/>
<path fill="#45A29E" stroke="#62D5E9" d="M309.503,326.169c0.138,1.016-0.598,1.943-1.643,2.076s-2.004-0.579-2.143-1.594
	c-0.138-1.014,0.598-1.943,1.643-2.075C308.405,324.444,309.365,325.155,309.503,326.169z"/>
<path fill="#45A29E" stroke="#62D5E9" d="M344.206,310.729c0.119,1.017-0.636,1.933-1.683,2.043
	c-1.047,0.118-1.993-0.615-2.111-1.628c-0.117-1.018,0.637-1.932,1.685-2.049C343.144,308.982,344.088,309.713,344.206,310.729z"/>
<path fill="#45A29E" stroke="#62D5E9" d="M378.906,318.193c-0.113,1.013-1.057,1.751-2.104,1.638
	c-1.048-0.11-1.805-1.027-1.69-2.039c0.113-1.017,1.057-1.75,2.104-1.642C378.263,316.26,379.02,317.178,378.906,318.193z"/>
<path fill="#45A29E" stroke="#62D5E9" d="M413.603,318.111c0.128,1.014-0.616,1.938-1.662,2.06
	c-1.046,0.127-1.999-0.595-2.127-1.607c-0.129-1.016,0.615-1.938,1.661-2.065C412.521,316.375,413.474,317.096,413.603,318.111z"/>
<path fill="#45A29E" stroke="#62D5E9" d="M448.255,309.129c0.266,0.989-0.348,2.001-1.367,2.254c-1.02,0.26-2.062-0.335-2.327-1.323
	c-0.266-0.989,0.348-2.001,1.366-2.256C446.947,307.546,447.99,308.14,448.255,309.129z"/>
<path marker-mid="url(#e)" marker-start="url(#h)" marker-end="url(#g)" fill="#62D5E9" stroke="#62D5E9" d="M446.444,309.587"/>
</svg>
